<svg xmlns="http://www.w3.org/2000/svg" width="26.666" height="27.362" viewBox="2.001 177 26.666 27.362"><path d="M5.996 177h18.668c.094.023.188.05.283.07 2.04.417 3.515 2.027 3.669 4.105.08 1.08.04 2.17.041 3.255.003 5.081.004 10.163-.003 15.244-.003 2.248-1.421 4.075-3.525 4.573-.172.04-.346.077-.519.115H6.05c-.096-.022-.19-.047-.286-.064a4.554 4.554 0 0 1-3.727-4.091 6.192 6.192 0 0 1-.032-.56c-.003-5.98-.006-11.96-.003-17.94 0-2.166 1.279-3.927 3.27-4.528.238-.072.483-.12.724-.179Zm9.307 20.452h11.146c.457 0 .463-.006.463-.462l-.002-12.558c0-.492-.005-.497-.487-.497H4.237c-.483 0-.487.005-.487.496l-.002 12.531c0 .489 0 .49.488.49h11.067Zm3.119-15.269c.657 0 1.314-.006 1.97.003.243.004.329-.094.327-.332-.008-.943-.006-1.886-.002-2.828.001-.208-.066-.31-.291-.31-1.314.006-2.627.006-3.941 0-.22 0-.297.088-.296.303.006.951.007 1.903 0 2.854-.002.233.09.315.316.313.639-.008 1.278-.003 1.917-.003Zm.028 16.993c-.64 0-1.28.007-1.92-.003-.249-.004-.348.083-.345.34.01.935.01 1.87 0 2.804-.004.265.106.335.35.334 1.28-.008 2.559-.008 3.838 0 .248.001.352-.079.35-.338-.01-.935-.01-1.87-.001-2.804.002-.262-.11-.34-.353-.336-.64.01-1.28.003-1.92.003Zm-6.14-20.457c-.613 0-1.226-.002-1.839 0-.344.001-.372.027-.373.358-.003.917-.003 1.833 0 2.75 0 .321.034.355.352.355 1.225.003 2.45-.003 3.676.005.25.002.35-.08.346-.339-.01-.934-.01-1.868 0-2.802.002-.24-.079-.335-.324-.33-.613.01-1.226.003-1.839.003Zm-.04 23.928c.631 0 1.263-.004 1.893.002.209.002.312-.066.31-.291-.006-.962-.006-1.924 0-2.886 0-.22-.094-.298-.306-.297a518.1 518.1 0 0 1-3.76 0c-.23-.002-.315.096-.314.32.004.944.005 1.888-.002 2.832-.002.247.105.326.34.323.613-.01 1.226-.003 1.84-.003Zm-6.218-3.47H4.054c-.154 0-.274.025-.303.218-.225 1.477.828 2.972 2.312 3.186.636.092 1.292.053 1.94.064.312.005.345-.034.346-.36.002-.916.002-1.833 0-2.75-.002-.32-.037-.356-.352-.358-.648-.003-1.297 0-1.945 0Zm-.03-16.994c.658 0 1.316.002 1.974 0 .317-.002.346-.034.35-.358.003-.232 0-.463 0-.695 0-.695.001-1.39-.001-2.084 0-.142.014-.323-.19-.318-.763.02-1.544-.04-2.282.107-1.4.28-2.313 1.706-2.121 3.124.026.194.14.224.297.224h1.973Zm18.648 16.993c-.64 0-1.278.006-1.917-.002-.23-.003-.322.09-.316.316.009.267.002.534.002.8 0 .685-.001 1.37 0 2.055 0 .136.003.298.19.293.716-.02 1.445.02 2.145-.1 1.077-.186 2.23-1.249 2.14-2.975-.018-.353-.034-.385-.38-.386-.622-.003-1.243-.001-1.864 0Zm0-16.993h1.918c.162 0 .3-.015.319-.228.17-1.923-1.167-3.055-2.404-3.188-.563-.06-1.134-.028-1.701-.051-.26-.01-.342.102-.34.348.007.925.007 1.85 0 2.775-.002.25.09.352.344.348.622-.01 1.243-.004 1.865-.004Z"/><path d="M10.752 190.682v-4.38c0-.098.005-.197 0-.294-.048-.934.74-1.322 1.505-.869 2.685 1.59 5.396 3.136 8.098 4.697.27.156.5.342.567.668.082.403-.087.739-.515.988-1.045.61-2.093 1.212-3.14 1.817l-4.986 2.884c-.093.053-.184.109-.281.153a.848.848 0 0 1-1.213-.645 3.34 3.34 0 0 1-.032-.532c-.003-1.495-.001-2.991-.001-4.487h-.002Zm1.777 3.373 5.83-3.374-5.83-3.371v6.745Z" /></svg>