<svg xmlns="http://www.w3.org/2000/svg" width="25.924" height="29.165" viewBox="2.001 86 25.924 29.165" >
    <path d="M16.408 105.602H13.52c-.395 0-.717.49-.717 1.094v8.468h4.32v-8.468c0-.604-.32-1.094-.715-1.094Z" />
    <path d="m26.473 94.886-8.635-7.779a4.286 4.286 0 0 0-5.748 0l-8.636 7.779a4.407 4.407 0 0 0-1.453 3.276v12.62c0 2.42 1.937 4.382 4.328 4.382h4.313v-8.61c0-1.72 1.29-3.112 2.878-3.112h2.887c1.589 0 2.877 1.393 2.877 3.112v8.61h4.315c2.389 0 4.326-1.962 4.326-4.383V98.162a4.405 4.405 0 0 0-1.452-3.276Z" />
  </svg>