<svg xmlns="http://www.w3.org/2000/svg" width="28" height="26" viewBox="1 267 28 26">
    <path d="M2.5 267a1.5 1.5 0 0 1 1.5 1.5v23a1.5 1.5 0 0 1-1.5 1.5 1.5 1.5 0 0 1-1.5-1.5v-23a1.5 1.5 0 0 1 1.5-1.5z"/>
    <path d="M27.5 267a1.5 1.5 0 0 1 1.5 1.5v23a1.5 1.5 0 0 1-1.5 1.5 1.5 1.5 0 0 1-1.5-1.5v-23a1.5 1.5 0 0 1 1.5-1.5z"/>
    <path d="M4 0h8a4 4 0 0 1 4 4v3a4 4 0 0 1-4 4H4a4 4 0 0 1-4-4V4a4 4 0 0 1 4-4z" stroke-linejoin="round" stroke-linecap="round" stroke-width="2" transform="matrix(.875 0 0 .81818 8 269)" data-name="Rectangle 2736"/>
    <path d="M4 0h8a4 4 0 0 1 4 4v3a4 4 0 0 1-4 4H4a4 4 0 0 1-4-4V4a4 4 0 0 1 4-4z" stroke-linejoin="round" stroke-linecap="round" stroke-width="2" transform="matrix(.875 0 0 .81818 8 283)" data-name="Rectangle 2737"/>
</svg>