<svg xmlns="http://www.w3.org/2000/svg" width="30" height="25.715" viewBox="0 448 30 25.715">
    <path d="M17.142 448c3.572 0 6.608 1.25 9.108 3.75 2.5 2.5 3.75 5.536 3.75 9.107 0 3.572-1.25 6.608-3.75 9.108-2.5 2.5-5.536 3.75-9.108 3.75-3.526 0-6.562-1.25-9.107-3.75l2.076-2.076c1.92 1.965 4.263 2.947 7.031 2.947 2.769 0 5.124-.971 7.065-2.914 1.942-1.942 2.913-4.297 2.914-7.065 0-2.767-.97-5.122-2.914-7.065-1.942-1.942-4.297-2.913-7.065-2.913-2.767 0-5.121.971-7.064 2.913-1.942 1.943-2.913 4.298-2.913 7.065h4.286l-5.826 5.76-.067-.201L0 460.857h4.286c0-3.571 1.25-6.607 3.75-9.107 2.5-2.5 5.535-3.75 9.106-3.75Zm-1.406 7.165h2.142v6.027l4.955 3.013-1.004 1.74-6.094-3.683v-7.097Z" />
</svg>