<svg xmlns="http://www.w3.org/2000/svg" width="27.621" height="28.712" viewBox="1.001 357 27.621 28.712">
    <path d="M18.341 385.712c-1.354-.03-2.795-.295-4.217-.692-1.739-.486-3.395-1.169-4.997-2.006-1.724-.9-2.926-2.261-3.776-3.991-1.141-2.326-1.993-4.759-2.685-7.246-.589-2.114-1.095-4.252-1.62-6.384-.196-.79.262-1.338 1.082-1.344 3.634-.022 7.164-.617 10.568-1.912 2.962-1.127 5.658-2.715 8.121-4.707l.175-.14c.617-.482 1.303-.359 1.657.338.95 1.873 1.915 3.739 2.808 5.639 1.07 2.278 2.042 4.601 2.664 7.049.232.915.397 1.859.483 2.8.11 1.196-.296 2.317-.74 3.407-1.054 2.585-2.503 4.92-4.444 6.935-.221.23-.46.445-.7.655-1.364 1.183-2.45 1.59-4.379 1.599ZM3.294 366.076c.02.093.027.143.04.192.65 2.352 1.262 4.716 1.963 7.052.56 1.87 1.262 3.69 2.212 5.406.497.897 1.156 1.634 2.04 2.16a20.244 20.244 0 0 0 8.324 2.77c1.562.166 2.858-.336 3.947-1.465a19.75 19.75 0 0 0 4.384-7.03c.34-.928.497-1.882.282-2.86-.187-.852-.379-1.708-.647-2.538-.985-3.051-2.34-5.947-3.765-8.812-.222-.446-.455-.887-.693-1.352-5.357 4.078-11.378 6.219-18.087 6.477Z"/>
    <path d="M16.99 380.456a9.965 9.965 0 0 1-3.36-.814c-.592-.258-.846-.853-.609-1.407.23-.541.821-.778 1.403-.547.927.366 1.87.63 2.88.587a2.412 2.412 0 0 0 1.445-.566c.714-.578 1.225-1.315 1.652-2.117.274-.516.754-.743 1.252-.596.576.17.962.78.712 1.317-.8 1.717-1.9 3.181-3.766 3.844-.508.18-1.07.203-1.608.299Z"/>
    <path d="M20.616 365.528c.544.119 1.095.213 1.632.362.6.167.903.74.738 1.311-.161.56-.727.849-1.333.72-.457-.097-.926-.206-1.388-.198-.87.016-1.451.554-1.904 1.243-.228.349-.496.611-.937.638-.78.048-1.39-.77-1.02-1.456.864-1.607 2.329-2.634 4.212-2.62Z" />
    <path d="M11.12 369.089c.27.058.81.152 1.336.296.634.174.946.731.779 1.313-.17.593-.74.864-1.39.709-.422-.101-.862-.193-1.292-.187-.883.013-1.48.543-1.939 1.245-.242.372-.53.64-1 .644-.769.005-1.327-.811-.954-1.482.897-1.614 2.33-2.6 4.46-2.538Z" />
</svg>