<svg xmlns="http://www.w3.org/2000/svg" width="29.968" height="29.968" viewBox="-1 -1 29.968 29.968"><g data-name="ICON - Search" transform="translate(-61 -300)" clip-path="url(&quot;#a&quot;)"><path d="m89.096 321.649-6.794-4.583a10.705 10.705 0 0 0 .878-6.732c-1.133-5.825-6.792-9.642-12.617-8.51-5.824 1.132-9.642 6.792-8.51 12.616 1.132 5.825 6.792 9.642 12.617 8.51a10.705 10.705 0 0 0 5.913-3.335l6.794 4.583a1.54 1.54 0 0 0 1.72-2.55Zm-24.025-7.795a7.686 7.686 0 1 1 9.012 6.078 7.696 7.696 0 0 1-9.012-6.078Z" /></g><defs><clipPath id="a"><path d="M0 0h30v26H0V0z" data-name="Rectangle 2696" transform="translate(61 300)"/></clipPath></defs></svg>